<svg xmlns="http://www.w3.org/2000/svg" viewBox="0 0 400 300" width="400" height="300">
  <defs>
    <radialGradient id="g" cx="50%" cy="50%" r="60%">
      <stop offset="0%" stop-color="#00e5ff" stop-opacity="0.45"/>
      <stop offset="100%" stop-color="#00e5ff" stop-opacity="0"/>
    </radialGradient>
  </defs>
  <rect width="400" height="300" fill="transparent"/>
  <circle cx="200" cy="160" r="140" fill="url(#g)"/>
  <g transform="translate(140,90)" fill="none" stroke="#00e5ff" stroke-width="2.5" opacity="0.9">
    <path d="M60 10 C28 10 8 32 8 62 c0 8 2 16 5 22 2 4 6 6 10 6 h18 c3 0 6-2 6-5 0-9 8-17 17-17 h4 c9 0 17 8 17 17 0 3 3 5 6 5 h18 c4 0 8-2 10-6 3-6 5-14 5-22 0-30-20-52-52-52 z"/>
    <circle cx="38" cy="58" r="6" fill="#00e5ff"/>
    <circle cx="82" cy="58" r="6" fill="#00e5ff"/>
  </g>
</svg>
